<mxfile host="app.diagrams.net" modified="2024-08-27T16:15:14.322Z" agent="Mozilla/5.0 (Macintosh; Intel Mac OS X 10.15; rv:129.0) Gecko/20100101 Firefox/129.0" version="23.1.2" etag="LTjyD-DtS0UtTrSiH7a0" type="github">
  <diagram name="Page-1" id="pJeVdPgJP1tW0TAv4W88">
    <mxGraphModel>
      <root>
        <mxCell id="0" />
        <mxCell id="1" parent="0" />
      </root>
    </mxGraphModel>
  </diagram>
</mxfile>
